<svg id="Calque_1" data-name="Calque 1" xmlns="http://www.w3.org/2000/svg" width="22" height="22" viewBox="0 0 22 22"><defs><style>.cls-1{fill:#fff;}</style></defs><path class="cls-1" d="M20.2918,8.1571c-.09,1.85-1.3538,4.3772-3.8809,7.6263-2.5722,3.3393-4.7833,5.0089-6.5432,5.0089-1.1282,0-2.0307-1.0379-2.7978-3.0685-.4964-1.8953-1.0379-3.7455-1.5343-5.6408-.5867-2.0306-1.1733-3.0685-1.85-3.0685a6.7093,6.7093,0,0,0-1.4891.9025L1.2937,8.7437c.9477-.8123,1.85-1.67,2.7527-2.4819A6.1926,6.1926,0,0,1,6.8442,4.547c1.4892-.1354,2.3917.8574,2.7076,3.0234.361,2.3466.6318,3.7906.7671,4.3772.4062,1.9405.9025,2.8881,1.3989,2.8881.4062,0,.9928-.6318,1.8051-1.8953a6.892,6.892,0,0,0,1.2635-2.888c.1354-1.0831-.3159-1.6246-1.2635-1.6246a3.2944,3.2944,0,0,0-1.3989.3159c.9476-3.0686,2.7075-4.5577,5.37-4.4675C19.5246,4.3665,20.4271,5.6751,20.2918,8.1571Z"/></svg>